<svg width="40" height="40" viewBox="0 0 40 40" fill="none" xmlns="http://www.w3.org/2000/svg">
<rect width="40" height="40" rx="20" fill="#FFA426" fill-opacity="0.12"/>
<path d="M24.4 10.8334H22.0167C19.0833 10.8334 17.25 12.6667 17.25 15.6V19.3125H22.9792C23.355 19.3125 23.6667 19.6242 23.6667 20C23.6667 20.3759 23.355 20.6875 22.9792 20.6875H17.25V24.4C17.25 27.3334 19.0833 29.1667 22.0167 29.1667H24.3908C27.3242 29.1667 29.1575 27.3334 29.1575 24.4V15.6C29.1667 12.6667 27.3333 10.8334 24.4 10.8334Z" fill="#FFA426"/>
<path d="M13.1803 19.3126L15.0778 17.4151C15.2153 17.2776 15.2795 17.1034 15.2795 16.9292C15.2795 16.7551 15.2153 16.5717 15.0778 16.4434C14.812 16.1776 14.372 16.1776 14.1061 16.4434L11.0353 19.5142C10.7695 19.7801 10.7695 20.2201 11.0353 20.4859L14.1061 23.5567C14.372 23.8226 14.812 23.8226 15.0778 23.5567C15.3436 23.2909 15.3436 22.8509 15.0778 22.5851L13.1803 20.6876H17.2503V19.3126H13.1803V19.3126Z" fill="#FFA426"/>
</svg>
