<svg width="18" height="18" viewBox="0 0 18 18" fill="none" xmlns="http://www.w3.org/2000/svg">
<path d="M12.6 1.5H10.65C8.25 1.5 6.75 3 6.75 5.4V8.4375H11.4375C11.745 8.4375 12 8.6925 12 9C12 9.3075 11.745 9.5625 11.4375 9.5625H6.75V12.6C6.75 15 8.25 16.5 10.65 16.5H12.5925C14.9925 16.5 16.4925 15 16.4925 12.6V5.4C16.5 3 15 1.5 12.6 1.5Z" fill="#FFA426"/>
<path d="M3.41812 8.43738L4.97062 6.88488C5.08312 6.77238 5.13562 6.62988 5.13562 6.48738C5.13562 6.34488 5.08312 6.19488 4.97062 6.08988C4.75312 5.87238 4.39312 5.87238 4.17562 6.08988L1.66312 8.60238C1.44563 8.81988 1.44563 9.17988 1.66312 9.39738L4.17562 11.9099C4.39312 12.1274 4.75312 12.1274 4.97062 11.9099C5.18812 11.6924 5.18812 11.3324 4.97062 11.1149L3.41812 9.56238H6.74812V8.43738H3.41812V8.43738Z" fill="#FFA426"/>
</svg>
