<svg width="40" height="41" viewBox="0 0 40 41" fill="none" xmlns="http://www.w3.org/2000/svg">
<rect y="0.5" width="40" height="40" rx="20" fill="#E65768" fill-opacity="0.06"/>
<path d="M16.0008 30.5H24.0008C28.0208 30.5 28.7408 28.89 28.9508 26.93L29.7008 18.93C29.9708 16.49 29.2708 14.5 25.0008 14.5H15.0008C10.7308 14.5 10.0308 16.49 10.3008 18.93L11.0508 26.93C11.2608 28.89 11.9808 30.5 16.0008 30.5Z" stroke="#E65768" stroke-width="1.5" stroke-miterlimit="10" stroke-linecap="round" stroke-linejoin="round"/>
<path d="M16 14.5V13.7C16 11.93 16 10.5 19.2 10.5H20.8C24 10.5 24 11.93 24 13.7V14.5" stroke="#E65768" stroke-width="1.5" stroke-miterlimit="10" stroke-linecap="round" stroke-linejoin="round"/>
<path d="M22 21.5V22.5C22 22.51 22 22.51 22 22.52C22 23.61 21.99 24.5 20 24.5C18.02 24.5 18 23.62 18 22.53V21.5C18 20.5 18 20.5 19 20.5H21C22 20.5 22 20.5 22 21.5Z" stroke="#E65768" stroke-width="1.5" stroke-miterlimit="10" stroke-linecap="round" stroke-linejoin="round"/>
<path d="M29.65 19.5C27.34 21.18 24.7 22.18 22 22.52" stroke="#E65768" stroke-width="1.5" stroke-miterlimit="10" stroke-linecap="round" stroke-linejoin="round"/>
<path d="M10.6172 19.77C12.8672 21.31 15.4072 22.24 17.9972 22.53" stroke="#E65768" stroke-width="1.5" stroke-miterlimit="10" stroke-linecap="round" stroke-linejoin="round"/>
</svg>
