<svg width="40" height="40" viewBox="0 0 40 40" fill="none" xmlns="http://www.w3.org/2000/svg">
<rect width="40" height="40" rx="20" fill="#4AAF57" fill-opacity="0.08"/>
<path d="M17.1625 18.87C17.0625 18.86 16.9425 18.86 16.8325 18.87C14.4525 18.79 12.5625 16.84 12.5625 14.44C12.5625 11.99 14.5425 10 17.0025 10C19.4525 10 21.4425 11.99 21.4425 14.44C21.4325 16.84 19.5425 18.79 17.1625 18.87Z" stroke="#4AAF57" stroke-width="1.5" stroke-linecap="round" stroke-linejoin="round"/>
<path d="M24.4112 12C26.3512 12 27.9112 13.57 27.9112 15.5C27.9112 17.39 26.4113 18.93 24.5413 19C24.4613 18.99 24.3713 18.99 24.2812 19" stroke="#4AAF57" stroke-width="1.5" stroke-linecap="round" stroke-linejoin="round"/>
<path d="M12.1588 22.56C9.73875 24.18 9.73875 26.82 12.1588 28.43C14.9088 30.27 19.4188 30.27 22.1688 28.43C24.5888 26.81 24.5888 24.17 22.1688 22.56C19.4288 20.73 14.9188 20.73 12.1588 22.56Z" stroke="#4AAF57" stroke-width="1.5" stroke-linecap="round" stroke-linejoin="round"/>
<path d="M26.3438 28C27.0638 27.85 27.7437 27.56 28.3037 27.13C29.8637 25.96 29.8637 24.03 28.3037 22.86C27.7537 22.44 27.0838 22.16 26.3738 22" stroke="#4AAF57" stroke-width="1.5" stroke-linecap="round" stroke-linejoin="round"/>
</svg>
