<svg width="40" height="41" viewBox="0 0 40 41" fill="none" xmlns="http://www.w3.org/2000/svg">
<rect y="0.5" width="40" height="40" rx="20" fill="#2B86C4" fill-opacity="0.08"/>
<path d="M30 25.2399V13.1699C30 11.9699 29.02 11.0799 27.83 11.1799H27.77C25.67 11.3599 22.48 12.4299 20.7 13.5499L20.53 13.6599C20.24 13.8399 19.76 13.8399 19.47 13.6599L19.22 13.5099C17.44 12.3999 14.26 11.3399 12.16 11.1699C10.97 11.0699 10 11.9699 10 13.1599V25.2399C10 26.1999 10.78 27.0999 11.74 27.2199L12.03 27.2599C14.2 27.5499 17.55 28.6499 19.47 29.6999L19.51 29.7199C19.78 29.8699 20.21 29.8699 20.47 29.7199C22.39 28.6599 25.75 27.5499 27.93 27.2599L28.26 27.2199C29.22 27.0999 30 26.1999 30 25.2399Z" stroke="#2B86C4" stroke-width="1.5" stroke-linecap="round" stroke-linejoin="round"/>
<path d="M20 13.99V28.99" stroke="#2B86C4" stroke-width="1.5" stroke-linecap="round" stroke-linejoin="round"/>
<path d="M15.75 16.99H13.5" stroke="#2B86C4" stroke-width="1.5" stroke-linecap="round" stroke-linejoin="round"/>
<path d="M16.5 19.99H13.5" stroke="#2B86C4" stroke-width="1.5" stroke-linecap="round" stroke-linejoin="round"/>
</svg>
