<svg width="40" height="41" viewBox="0 0 40 41" fill="none" xmlns="http://www.w3.org/2000/svg">
<rect y="0.5" width="40" height="40" rx="20" fill="#EE6C4D" fill-opacity="0.06"/>
<path d="M16 10.5V13.5" stroke="#EE6C4D" stroke-width="1.5" stroke-miterlimit="10" stroke-linecap="round" stroke-linejoin="round"/>
<path d="M24 10.5V13.5" stroke="#EE6C4D" stroke-width="1.5" stroke-miterlimit="10" stroke-linecap="round" stroke-linejoin="round"/>
<path d="M11.5 17.5901H28.5" stroke="#EE6C4D" stroke-width="1.5" stroke-miterlimit="10" stroke-linecap="round" stroke-linejoin="round"/>
<path d="M29 17V25.5C29 28.5 27.5 30.5 24 30.5H16C12.5 30.5 11 28.5 11 25.5V17C11 14 12.5 12 16 12H24C27.5 12 29 14 29 17Z" stroke="#EE6C4D" stroke-width="1.5" stroke-miterlimit="10" stroke-linecap="round" stroke-linejoin="round"/>
<path d="M23.6976 22.2H23.7066" stroke="#EE6C4D" stroke-width="2" stroke-linecap="round" stroke-linejoin="round"/>
<path d="M23.6976 25.2H23.7066" stroke="#EE6C4D" stroke-width="2" stroke-linecap="round" stroke-linejoin="round"/>
<path d="M19.9945 22.2H20.0035" stroke="#EE6C4D" stroke-width="2" stroke-linecap="round" stroke-linejoin="round"/>
<path d="M19.9945 25.2H20.0035" stroke="#EE6C4D" stroke-width="2" stroke-linecap="round" stroke-linejoin="round"/>
<path d="M16.2914 22.2H16.3004" stroke="#EE6C4D" stroke-width="2" stroke-linecap="round" stroke-linejoin="round"/>
<path d="M16.2914 25.2H16.3004" stroke="#EE6C4D" stroke-width="2" stroke-linecap="round" stroke-linejoin="round"/>
</svg>
