<svg width="40" height="40" viewBox="0 0 40 40" fill="none" xmlns="http://www.w3.org/2000/svg">
<rect width="40" height="40" rx="20" fill="#2B86C4" fill-opacity="0.12"/>
<path d="M24 12.25C24 13.49 22.99 14.5 21.75 14.5H18.25C17.63 14.5 17.07 14.25 16.66 13.84C16.25 13.43 16 12.87 16 12.25C16 11.01 17.01 10 18.25 10H21.75C22.37 10 22.93 10.25 23.34 10.66C23.75 11.07 24 11.63 24 12.25Z" fill="#2B86C4"/>
<path d="M26.83 13.03C26.6 12.84 26.34 12.69 26.06 12.58C25.77 12.47 25.48 12.7 25.42 13C25.08 14.71 23.57 16 21.75 16H18.25C17.25 16 16.31 15.61 15.6 14.9C15.08 14.38 14.72 13.72 14.58 13.01C14.52 12.71 14.22 12.47 13.93 12.59C12.77 13.06 12 14.12 12 16.25V26C12 29 13.79 30 16 30H24C26.21 30 28 29 28 26V16.25C28 14.62 27.55 13.62 26.83 13.03ZM16 20.25H20C20.41 20.25 20.75 20.59 20.75 21C20.75 21.41 20.41 21.75 20 21.75H16C15.59 21.75 15.25 21.41 15.25 21C15.25 20.59 15.59 20.25 16 20.25ZM24 25.75H16C15.59 25.75 15.25 25.41 15.25 25C15.25 24.59 15.59 24.25 16 24.25H24C24.41 24.25 24.75 24.59 24.75 25C24.75 25.41 24.41 25.75 24 25.75Z" fill="#2B86C4"/>
</svg>
