<svg width="40" height="40" viewBox="0 0 40 40" fill="none" xmlns="http://www.w3.org/2000/svg">
<rect width="40" height="40" rx="20" fill="#4AAF57" fill-opacity="0.12"/>
<path d="M24.7502 11.56V10C24.7502 9.59 24.4102 9.25 24.0002 9.25C23.5902 9.25 23.2502 9.59 23.2502 10V11.5H16.7502V10C16.7502 9.59 16.4102 9.25 16.0002 9.25C15.5902 9.25 15.2502 9.59 15.2502 10V11.56C12.5502 11.81 11.2402 13.42 11.0402 15.81C11.0202 16.1 11.2602 16.34 11.5402 16.34H28.4602C28.7502 16.34 28.9902 16.09 28.9602 15.81C28.7602 13.42 27.4502 11.81 24.7502 11.56Z" fill="#4AAF57" fill-opacity="0.960784"/>
<path d="M28 17.8401H12C11.45 17.8401 11 18.2901 11 18.8401V25.0001C11 28.0001 12.5 30.0001 16 30.0001H24C27.5 30.0001 29 28.0001 29 25.0001V18.8401C29 18.2901 28.55 17.8401 28 17.8401ZM17.21 26.2101C17.16 26.2501 17.11 26.3001 17.06 26.3301C17 26.3701 16.94 26.4001 16.88 26.4201C16.82 26.4501 16.76 26.4701 16.7 26.4801C16.63 26.4901 16.57 26.5001 16.5 26.5001C16.37 26.5001 16.24 26.4701 16.12 26.4201C15.99 26.3701 15.89 26.3001 15.79 26.2101C15.61 26.0201 15.5 25.7601 15.5 25.5001C15.5 25.2401 15.61 24.9801 15.79 24.7901C15.89 24.7001 15.99 24.6301 16.12 24.5801C16.3 24.5001 16.5 24.4801 16.7 24.5201C16.76 24.5301 16.82 24.5501 16.88 24.5801C16.94 24.6001 17 24.6301 17.06 24.6701C17.11 24.7101 17.16 24.7501 17.21 24.7901C17.39 24.9801 17.5 25.2401 17.5 25.5001C17.5 25.7601 17.39 26.0201 17.21 26.2101ZM17.21 22.7101C17.02 22.8901 16.76 23.0001 16.5 23.0001C16.24 23.0001 15.98 22.8901 15.79 22.7101C15.61 22.5201 15.5 22.2601 15.5 22.0001C15.5 21.7401 15.61 21.4801 15.79 21.2901C16.07 21.0101 16.51 20.9201 16.88 21.0801C17.01 21.1301 17.12 21.2001 17.21 21.2901C17.39 21.4801 17.5 21.7401 17.5 22.0001C17.5 22.2601 17.39 22.5201 17.21 22.7101ZM20.71 26.2101C20.52 26.3901 20.26 26.5001 20 26.5001C19.74 26.5001 19.48 26.3901 19.29 26.2101C19.11 26.0201 19 25.7601 19 25.5001C19 25.2401 19.11 24.9801 19.29 24.7901C19.66 24.4201 20.34 24.4201 20.71 24.7901C20.89 24.9801 21 25.2401 21 25.5001C21 25.7601 20.89 26.0201 20.71 26.2101ZM20.71 22.7101C20.66 22.7501 20.61 22.7901 20.56 22.8301C20.5 22.8701 20.44 22.9001 20.38 22.9201C20.32 22.9501 20.26 22.9701 20.2 22.9801C20.13 22.9901 20.07 23.0001 20 23.0001C19.74 23.0001 19.48 22.8901 19.29 22.7101C19.11 22.5201 19 22.2601 19 22.0001C19 21.7401 19.11 21.4801 19.29 21.2901C19.38 21.2001 19.49 21.1301 19.62 21.0801C19.99 20.9201 20.43 21.0101 20.71 21.2901C20.89 21.4801 21 21.7401 21 22.0001C21 22.2601 20.89 22.5201 20.71 22.7101ZM24.21 26.2101C24.02 26.3901 23.76 26.5001 23.5 26.5001C23.24 26.5001 22.98 26.3901 22.79 26.2101C22.61 26.0201 22.5 25.7601 22.5 25.5001C22.5 25.2401 22.61 24.9801 22.79 24.7901C23.16 24.4201 23.84 24.4201 24.21 24.7901C24.39 24.9801 24.5 25.2401 24.5 25.5001C24.5 25.7601 24.39 26.0201 24.21 26.2101ZM24.21 22.7101C24.16 22.7501 24.11 22.7901 24.06 22.8301C24 22.8701 23.94 22.9001 23.88 22.9201C23.82 22.9501 23.76 22.9701 23.7 22.9801C23.63 22.9901 23.56 23.0001 23.5 23.0001C23.24 23.0001 22.98 22.8901 22.79 22.7101C22.61 22.5201 22.5 22.2601 22.5 22.0001C22.5 21.7401 22.61 21.4801 22.79 21.2901C22.89 21.2001 22.99 21.1301 23.12 21.0801C23.3 21.0001 23.5 20.9801 23.7 21.0201C23.76 21.0301 23.82 21.0501 23.88 21.0801C23.94 21.1001 24 21.1301 24.06 21.1701C24.11 21.2101 24.16 21.2501 24.21 21.2901C24.39 21.4801 24.5 21.7401 24.5 22.0001C24.5 22.2601 24.39 22.5201 24.21 22.7101Z" fill="#4AAF57" fill-opacity="0.960784"/>
</svg>
