<svg width="40" height="40" viewBox="0 0 40 40" fill="none" xmlns="http://www.w3.org/2000/svg">
<rect width="40" height="40" rx="20" fill="#4AAF57" fill-opacity="0.12"/>
<path d="M24.8 10H22.2C19 10 17 12 17 15.2V19.25H21.44L19.37 17.18C19.22 17.03 19.15 16.84 19.15 16.65C19.15 16.46 19.22 16.27 19.37 16.12C19.66 15.83 20.14 15.83 20.43 16.12L23.78 19.47C24.07 19.76 24.07 20.24 23.78 20.53L20.43 23.88C20.14 24.17 19.66 24.17 19.37 23.88C19.08 23.59 19.08 23.11 19.37 22.82L21.44 20.75H17V24.8C17 28 19 30 22.2 30H24.79C27.99 30 29.99 28 29.99 24.8V15.2C30 12 28 10 24.8 10Z" fill="#4AAF57"/>
<path d="M10.75 19.25C10.34 19.25 10 19.59 10 20C10 20.41 10.34 20.75 10.75 20.75H17V19.25H10.75Z" fill="#4AAF57"/>
</svg>
