<svg width="40" height="40" viewBox="0 0 40 40" fill="none" xmlns="http://www.w3.org/2000/svg">
<rect width="40" height="40" rx="20" fill="#2B86C4" fill-opacity="0.12"/>
<path d="M20 26.75C19.59 26.75 19.25 26.41 19.25 26V25C19.25 24.59 19.59 24.25 20 24.25C20.41 24.25 20.75 24.59 20.75 25V26C20.75 26.41 20.41 26.75 20 26.75Z" fill="#2B86C4"/>
<path d="M20 30.75C19.59 30.75 19.25 30.41 19.25 30V29C19.25 28.59 19.59 28.25 20 28.25C20.41 28.25 20.75 28.59 20.75 29V30C20.75 30.41 20.41 30.75 20 30.75Z" fill="#2B86C4"/>
<path d="M10.0021 30.7501C9.94205 30.7501 9.88205 30.7401 9.82205 30.7301C9.42205 30.6301 9.17205 30.2201 9.27205 29.8201L10.2721 25.8201C10.3721 25.4201 10.7721 25.1701 11.1821 25.2701C11.5821 25.3701 11.8321 25.7801 11.7321 26.1801L10.7321 30.1801C10.6421 30.5201 10.3421 30.7501 10.0021 30.7501Z" fill="#2B86C4"/>
<path d="M29.7526 30.5026C29.4126 30.5026 29.1126 30.2726 29.0226 29.9326L28.0226 25.9326C27.9226 25.5326 28.1626 25.1226 28.5726 25.0226C28.9726 24.9226 29.3826 25.1626 29.4826 25.5726L30.4826 29.5726C30.5826 29.9726 30.3426 30.3826 29.9326 30.4826C29.8726 30.4926 29.8126 30.5026 29.7526 30.5026Z" fill="#2B86C4"/>
<path d="M27.1422 13.3C27.1422 13.6 26.8922 13.84 26.6022 13.84H13.5322C13.2322 13.84 12.9922 13.59 12.9922 13.3C12.9922 13 13.2422 12.76 13.5322 12.76H14.2722L14.5522 11.45C14.8122 10.17 15.3522 9 17.5122 9H22.6022C24.7622 9 25.3122 10.17 25.5722 11.44L25.8522 12.75H26.5922C26.8922 12.75 27.1422 13 27.1422 13.3Z" fill="#2B86C4"/>
<path d="M27.4482 17.3999C27.3382 16.1999 27.0182 14.9299 24.6882 14.9299H15.4282C13.0982 14.9299 12.7882 16.2099 12.6682 17.3999L12.2582 21.8199C12.2082 22.3699 12.3882 22.9199 12.7682 23.3399C13.1582 23.7599 13.6982 23.9999 14.2782 23.9999H15.6382C16.8182 23.9999 17.0382 23.3299 17.1882 22.8799L17.3382 22.4399C17.5082 21.9399 17.5482 21.8199 18.1982 21.8199H21.9182C22.5682 21.8199 22.5882 21.8899 22.7782 22.4399L22.9282 22.8799C23.0682 23.3299 23.2982 23.9999 24.4682 23.9999H25.8282C26.3982 23.9999 26.9482 23.7599 27.3382 23.3399C27.7182 22.9299 27.8982 22.3699 27.8482 21.8199L27.4482 17.3999ZM17.8782 18.9199H15.7082C15.4082 18.9199 15.1682 18.6699 15.1682 18.3799C15.1682 18.0899 15.4182 17.8399 15.7082 17.8399H17.8882C18.1882 17.8399 18.4282 18.0899 18.4282 18.3799C18.4282 18.6699 18.1782 18.9199 17.8782 18.9199ZM24.4082 18.9199H22.2282C21.9282 18.9199 21.6882 18.6699 21.6882 18.3799C21.6882 18.0899 21.9382 17.8399 22.2282 17.8399H24.4082C24.7082 17.8399 24.9482 18.0899 24.9482 18.3799C24.9482 18.6699 24.7082 18.9199 24.4082 18.9199Z" fill="#2B86C4"/>
</svg>
