<svg width="40" height="40" viewBox="0 0 40 40" fill="none" xmlns="http://www.w3.org/2000/svg">
<rect width="40" height="40" rx="8" fill="#2B86C4" fill-opacity="0.08"/>
<path d="M16 10V13" stroke="#2B86C4" stroke-width="1.5" stroke-miterlimit="10" stroke-linecap="round" stroke-linejoin="round"/>
<path d="M24 10V13" stroke="#2B86C4" stroke-width="1.5" stroke-miterlimit="10" stroke-linecap="round" stroke-linejoin="round"/>
<path d="M11.5 17.09H28.5" stroke="#2B86C4" stroke-width="1.5" stroke-miterlimit="10" stroke-linecap="round" stroke-linejoin="round"/>
<path d="M29 16.5V25C29 28 27.5 30 24 30H16C12.5 30 11 28 11 25V16.5C11 13.5 12.5 11.5 16 11.5H24C27.5 11.5 29 13.5 29 16.5Z" stroke="#2B86C4" stroke-width="1.5" stroke-miterlimit="10" stroke-linecap="round" stroke-linejoin="round"/>
<path d="M23.6976 21.7H23.7066" stroke="#2B86C4" stroke-width="2" stroke-linecap="round" stroke-linejoin="round"/>
<path d="M23.6976 24.7H23.7066" stroke="#2B86C4" stroke-width="2" stroke-linecap="round" stroke-linejoin="round"/>
<path d="M19.9945 21.7H20.0035" stroke="#2B86C4" stroke-width="2" stroke-linecap="round" stroke-linejoin="round"/>
<path d="M19.9945 24.7H20.0035" stroke="#2B86C4" stroke-width="2" stroke-linecap="round" stroke-linejoin="round"/>
<path d="M16.2914 21.7H16.3004" stroke="#2B86C4" stroke-width="2" stroke-linecap="round" stroke-linejoin="round"/>
<path d="M16.2914 24.7H16.3004" stroke="#2B86C4" stroke-width="2" stroke-linecap="round" stroke-linejoin="round"/>
</svg>
