<svg width="109" height="80" viewBox="0 0 109 80" fill="none" xmlns="http://www.w3.org/2000/svg">
<path d="M6.50583 38.503C6.50583 40.1615 5.16137 41.506 3.50291 41.506C1.84446 41.506 0.5 40.1615 0.5 38.503C0.5 36.8445 1.84446 35.5 3.50291 35.5C5.16137 35.5 6.50583 36.8445 6.50583 38.503Z" stroke="#E5E6E8"/>
<path d="M18.979 6.13022C18.979 9.0844 16.5842 11.4792 13.6301 11.4792C10.676 11.4792 8.28124 9.0844 8.28124 6.13022C8.28124 3.17605 10.676 0.781242 13.6301 0.781242C16.5842 0.781242 18.979 3.17605 18.979 6.13022Z" stroke="#E5E6E8" stroke-width="1.56248"/>
<path d="M102.002 41.0019C102.002 39.3434 103.346 37.9989 105.005 37.9989C106.663 37.9989 108.008 39.3434 108.008 41.0019C108.008 42.6604 106.663 44.0049 105.005 44.0049C103.346 44.0049 102.002 42.6604 102.002 41.0019Z" stroke="#E5E6E8"/>
<path d="M89.5289 73.3747C89.5289 70.4205 91.9236 68.0257 94.8777 68.0257C97.8318 68.0257 100.227 70.4205 100.227 73.3747C100.227 76.3288 97.8318 78.7236 94.8777 78.7236C91.9236 78.7236 89.5289 76.3288 89.5289 73.3747Z" stroke="#E5E6E8" stroke-width="1.56248"/>
<path d="M61.8458 10.8333H48.1375C45.1042 10.8333 42.625 13.2833 42.625 16.3166V19.0583C42.625 22.0916 45.075 24.5416 48.1083 24.5416H61.8458C64.8792 24.5416 67.3292 22.0916 67.3292 19.0583V16.3166C67.3583 13.2833 64.8792 10.8333 61.8458 10.8333Z" fill="white"/>
<path d="M85.6479 11.6563C84.7729 10.7812 83.3438 10.7812 82.4688 11.6563L23.6563 70.4979C22.7812 71.3729 22.7812 72.8021 23.6563 73.6771C24.0938 74.0854 24.6479 74.3188 25.2313 74.3188C25.8146 74.3188 26.3687 74.0854 26.8062 73.6479L85.6479 14.8062C86.5521 13.9312 86.5521 12.5313 85.6479 11.6563Z" fill="white"/>
<path fill-rule="evenodd" clip-rule="evenodd" d="M78.3991 21.7295C77.1902 19.8107 75.4961 18.2296 73.4896 17.1623C72.0312 16.404 70.2812 17.4248 70.2812 19.0582C70.2812 23.6957 66.4896 27.4873 61.8521 27.4873H48.1437C43.5062 27.4873 39.7146 23.6957 39.7146 19.0582C39.7146 17.4248 37.9646 16.404 36.5062 17.1623C32.3937 19.3498 29.5938 23.6957 29.5938 28.6832V56.129C29.5938 60.0686 31.3612 63.6125 34.1429 66.0076L45.7074 54.4373H43.3312C42.1354 54.4373 41.1437 53.4457 41.1437 52.2498C41.1437 51.054 42.1354 50.0623 43.3312 50.0623H50.0803L57.3683 42.7707H43.3312C42.1354 42.7707 41.1437 41.779 41.1437 40.5832C41.1437 39.3873 42.1354 38.3957 43.3312 38.3957H61.7412L78.3991 21.7295ZM65.9345 40.5197L80.1802 26.2741C80.3259 27.0551 80.4021 27.8604 80.4021 28.6832V56.129C80.4021 63.304 74.5396 69.1665 67.3646 69.1665H42.6313C41.0406 69.1665 39.5145 68.8784 38.1025 68.3517L52.0169 54.4373H56.1062C57.3021 54.4373 58.2937 53.4457 58.2937 52.2498C58.2937 51.1449 57.4471 50.2143 56.3751 50.0792L63.6836 42.7707H63.7479C64.9437 42.7707 65.9354 41.779 65.9354 40.5832C65.9354 40.5619 65.9351 40.5408 65.9345 40.5197Z" fill="white"/>
</svg>
