<svg width="40" height="40" viewBox="0 0 40 40" fill="none" xmlns="http://www.w3.org/2000/svg">
<rect width="40" height="40" rx="20" fill="#EE6C4D" fill-opacity="0.12"/>
<path d="M25.5291 15.77C25.4591 15.76 25.3891 15.76 25.3191 15.77C23.7691 15.72 22.5391 14.45 22.5391 12.89C22.5391 11.3 23.8291 10 25.4291 10C27.0191 10 28.3191 11.29 28.3191 12.89C28.3091 14.45 27.0791 15.72 25.5291 15.77Z" fill="#EE6C4D"/>
<path d="M28.7916 22.7004C27.6716 23.4504 26.1016 23.7304 24.6516 23.5404C25.0316 22.7204 25.2316 21.8104 25.2416 20.8504C25.2416 19.8504 25.0216 18.9004 24.6016 18.0704C26.0816 17.8704 27.6516 18.1504 28.7816 18.9004C30.3616 19.9404 30.3616 21.6504 28.7916 22.7004Z" fill="#EE6C4D"/>
<path d="M14.4362 15.77C14.5062 15.76 14.5763 15.76 14.6463 15.77C16.1962 15.72 17.4263 14.45 17.4263 12.89C17.4263 11.29 16.1363 10 14.5362 10C12.9462 10 11.6562 11.29 11.6562 12.89C11.6562 14.45 12.8863 15.72 14.4362 15.77Z" fill="#EE6C4D"/>
<path d="M14.5472 20.8496C14.5472 21.8196 14.7572 22.7396 15.1372 23.5696C13.7272 23.7196 12.2572 23.4196 11.1772 22.7096C9.59719 21.6596 9.59719 19.9496 11.1772 18.8996C12.2472 18.1796 13.7572 17.8896 15.1772 18.0496C14.7672 18.8896 14.5472 19.8396 14.5472 20.8496Z" fill="#EE6C4D"/>
<path d="M20.1169 23.87C20.0369 23.86 19.9469 23.86 19.8569 23.87C18.0169 23.81 16.5469 22.3 16.5469 20.44C16.5569 18.54 18.0869 17 19.9969 17C21.8969 17 23.4369 18.54 23.4369 20.44C23.4269 22.3 21.9669 23.81 20.1169 23.87Z" fill="#EE6C4D"/>
<path d="M16.8669 25.9396C15.3569 26.9496 15.3569 28.6096 16.8669 29.6096C18.5869 30.7596 21.4069 30.7596 23.1269 29.6096C24.6369 28.5996 24.6369 26.9396 23.1269 25.9396C21.4169 24.7896 18.5969 24.7896 16.8669 25.9396Z" fill="#EE6C4D"/>
</svg>
