<svg width="40" height="40" viewBox="0 0 40 40" fill="none" xmlns="http://www.w3.org/2000/svg">
<rect width="40" height="40" rx="20" fill="#E65768" fill-opacity="0.12"/>
<path d="M28.6172 16.45C27.5672 11.83 23.5372 9.75 19.9972 9.75C19.9972 9.75 19.9972 9.75 19.9872 9.75C16.4572 9.75 12.4172 11.82 11.3672 16.44C10.1972 21.6 13.3572 25.97 16.2172 28.72C17.2772 29.74 18.6372 30.25 19.9972 30.25C21.3572 30.25 22.7172 29.74 23.7672 28.72C26.6272 25.97 29.7872 21.61 28.6172 16.45ZM19.9972 21.46C18.2572 21.46 16.8472 20.05 16.8472 18.31C16.8472 16.57 18.2572 15.16 19.9972 15.16C21.7372 15.16 23.1472 16.57 23.1472 18.31C23.1472 20.05 21.7372 21.46 19.9972 21.46Z" fill="#E65768"/>
</svg>
