<svg width="40" height="40" viewBox="0 0 40 40" fill="none" xmlns="http://www.w3.org/2000/svg">
<rect width="40" height="40" rx="20" fill="#4AAF57" fill-opacity="0.12"/>
<path d="M20 10C14.49 10 10 14.49 10 20C10 25.51 14.49 30 20 30C25.51 30 30 25.51 30 20C30 14.49 25.51 10 20 10ZM24.35 23.57C24.21 23.81 23.96 23.94 23.7 23.94C23.57 23.94 23.44 23.91 23.32 23.83L20.22 21.98C19.45 21.52 18.88 20.51 18.88 19.62V15.52C18.88 15.11 19.22 14.77 19.63 14.77C20.04 14.77 20.38 15.11 20.38 15.52V19.62C20.38 19.98 20.68 20.51 20.99 20.69L24.09 22.54C24.45 22.75 24.57 23.21 24.35 23.57Z" fill="#4AAF57"/>
</svg>
