<svg width="120" height="120" viewBox="0 0 120 120" fill="none" xmlns="http://www.w3.org/2000/svg">
<rect width="120" height="120" rx="60" fill="#18C07A" fill-opacity="0.12"/>
<g clip-path="url(#clip0_2523_2655)">
<path d="M86.0284 59.9983C86.8932 58.9912 87.4993 57.7883 87.794 56.4939C88.0887 55.1995 88.0631 53.8528 87.7195 52.5705C87.3759 51.2883 86.7246 50.1092 85.8222 49.1356C84.9197 48.1621 83.7934 47.4234 82.5408 46.9837C82.7863 45.679 82.7096 44.3342 82.3176 43.0658C81.9256 41.7974 81.23 40.6439 80.2912 39.7052C79.3525 38.7666 78.1988 38.0712 76.9304 37.6793C75.662 37.2874 74.3172 37.211 73.0125 37.4566C72.5732 36.2037 71.8346 35.0771 70.861 34.1744C69.8874 33.2717 68.7082 32.6204 67.4258 32.2768C66.1434 31.9333 64.7964 31.908 63.502 32.2031C62.2075 32.4982 61.0047 33.1048 59.9979 33.9702C58.9908 33.1054 57.7878 32.4993 56.4935 32.2046C55.1991 31.9099 53.8523 31.9355 52.5701 32.2791C51.2878 32.6227 50.1088 33.274 49.1352 34.1764C48.1616 35.0789 47.4229 36.2052 46.9832 37.4578C45.6786 37.2126 44.3339 37.2894 43.0657 37.6815C41.7976 38.0736 40.6442 38.7692 39.7057 39.708C38.7672 40.6467 38.0719 41.8003 37.6801 43.0686C37.2883 44.3369 37.2118 45.6816 37.4574 46.9861C36.2048 47.4258 35.0784 48.1645 34.176 49.1381C33.2735 50.1116 32.6223 51.2907 32.2787 52.573C31.935 53.8552 31.9095 55.202 32.2042 56.4963C32.4989 57.7907 33.1049 58.9936 33.9698 60.0007C33.1047 61.0078 32.4984 62.2108 32.2036 63.5054C31.9089 64.7999 31.9345 66.1468 32.2782 67.4291C32.622 68.7115 33.2735 69.8906 34.1763 70.8641C35.079 71.8376 36.2057 72.5761 37.4586 73.0154C37.2128 74.32 37.2892 75.6648 37.681 76.9331C38.0729 78.2015 38.7684 79.355 39.7071 80.2937C40.6458 81.2323 41.7995 81.9276 43.0679 82.3193C44.3363 82.711 45.6811 82.7872 46.9857 82.5413C47.4254 83.7938 48.1641 84.9202 49.1376 85.8226C50.1112 86.7251 51.2903 87.3763 52.5725 87.72C53.8548 88.0636 55.2015 88.0891 56.4959 87.7944C57.7902 87.4997 58.9932 86.8937 60.0003 86.0288C61.0074 86.8939 62.2104 87.5002 63.5049 87.795C64.7994 88.0898 66.1463 88.0642 67.4287 87.7204C68.7111 87.3766 69.8902 86.7251 70.8637 85.8224C71.8371 84.9196 72.5756 83.7929 73.015 82.5401C74.3196 82.7857 75.6644 82.7093 76.9328 82.3175C78.2011 81.9256 79.3547 81.2302 80.2934 80.2915C81.2321 79.3528 81.9276 78.1992 82.3195 76.9308C82.7113 75.6624 82.7877 74.3176 82.542 73.013C83.7947 72.5734 84.9211 71.8347 85.8236 70.8611C86.7261 69.8875 87.3774 68.7083 87.7209 67.426C88.0644 66.1436 88.0898 64.7968 87.7948 63.5025C87.4999 62.2081 86.8936 61.0052 86.0284 59.9983V59.9983Z" fill="#18C07A"/>
<path d="M54.9764 70.6865L47.1955 62.9105C46.9002 62.6147 46.7344 62.2139 46.7344 61.7959C46.7344 61.378 46.9002 60.9771 47.1955 60.6813L48.1408 59.7348C48.4366 59.4395 48.8375 59.2736 49.2554 59.2736C49.6734 59.2736 50.0743 59.4395 50.37 59.7348L56.0261 65.3872L69.3465 51.2319C69.6332 50.9278 70.0287 50.7498 70.4465 50.7371C70.8642 50.7243 71.2699 50.8778 71.5745 51.1639L72.5453 52.0801C72.8498 52.3668 73.028 52.7626 73.0407 53.1806C73.0535 53.5986 72.8997 54.0046 72.6132 54.3093L57.2432 70.6513C57.0985 70.8056 56.9242 70.9291 56.7308 71.0147C56.5374 71.1002 56.3287 71.146 56.1173 71.1493C55.9058 71.1525 55.6958 71.1133 55.4998 71.0338C55.3038 70.9543 55.1258 70.8362 54.9764 70.6865V70.6865Z" fill="white"/>
</g>
<defs>
<clipPath id="clip0_2523_2655">
<rect width="56" height="56" fill="white" transform="translate(32 32)"/>
</clipPath>
</defs>
</svg>
