<?xml version="1.0" encoding="iso-8859-1"?>
<!-- Generator: Adobe Illustrator 19.1.1, SVG Export Plug-In . SVG Version: 6.00 Build 0)  -->
<svg version="1.1" id="Layer_1" xmlns="http://www.w3.org/2000/svg" xmlns:xlink="http://www.w3.org/1999/xlink" x="0px" y="0px"
	 viewBox="0 0 48 48" style="enable-background:new 0 0 48 48;" xml:space="preserve">
<circle style="fill:#EDE7F6;" cx="24" cy="24" r="20"/>
<rect x="18" y="18.25" style="fill:#4E342E;" width="12" height="13.5"/>
<path style="fill:#FF1744;" d="M24,44c4.482,0,8.605-1.492,11.94-3.982C35.326,32.641,28,31,28,31h-8c0,0-7.328,1.614-7.94,9.018
	C15.395,42.508,19.518,44,24,44z"/>
<path style="fill:#A0530E;" d="M24,34.75c-1.439,0-3.5-3.75-3.5-3.75v-5h7v5C27.5,31,25.439,34.75,24,34.75"/>
<path style="fill:#C16E14;" d="M31,23c0,3.728-3.272,7-7,7c-3.729,0-7-3.272-7-7v-6c0-3.728,14-5.726,14,0V23z M24,36
	c2.901,0,3.5-5,3.5-5s-1.864,3-3.5,3c-1.636,0-3.5-3-3.5-3S21.099,36,24,36"/>
<path style="fill:#212121;" d="M26,22c0-0.551,0.448-1,1-1s1,0.449,1,1s-0.448,1-1,1S26,22.551,26,22 M20,22c0,0.551,0.448,1,1,1
	s1-0.449,1-1s-0.448-1-1-1S20,21.449,20,22"/>
<path style="fill:#4E342E;" d="M24,11c-4.556,0-11,2.089-11,17l5,3.75V21l9-5l3,4v12l5-5c0-3.019-0.255-14.5-8-14.5L26,11H24z"/>
</svg>
