<svg width="24" height="24" viewBox="0 0 24 24" fill="none" xmlns="http://www.w3.org/2000/svg">
<path d="M11 2H9C4 2 2 4 2 9V15C2 20 4 22 9 22H15C20 22 22 20 22 15V13" stroke="#2B86C4" stroke-width="1.5" stroke-linecap="round" stroke-linejoin="round"/>
<path d="M16.0379 3.02001L8.15793 10.9C7.85793 11.2 7.55793 11.79 7.49793 12.22L7.06793 15.23C6.90793 16.32 7.67793 17.08 8.76793 16.93L11.7779 16.5C12.1979 16.44 12.7879 16.14 13.0979 15.84L20.9779 7.96001C22.3379 6.60001 22.9779 5.02001 20.9779 3.02001C18.9779 1.02001 17.3979 1.66001 16.0379 3.02001Z" stroke="#2B86C4" stroke-width="1.5" stroke-miterlimit="10" stroke-linecap="round" stroke-linejoin="round"/>
<path d="M14.9062 4.15002C15.5763 6.54002 17.4463 8.41002 19.8463 9.09002" stroke="#2B86C4" stroke-width="1.5" stroke-miterlimit="10" stroke-linecap="round" stroke-linejoin="round"/>
</svg>
