<svg width="40" height="40" viewBox="0 0 40 40" fill="none" xmlns="http://www.w3.org/2000/svg">
<rect width="40" height="40" rx="20" fill="#4AAF57" fill-opacity="0.12"/>
<path d="M20.75 23.9203H21.4C22.05 23.9203 22.59 23.3403 22.59 22.6403C22.59 21.7703 22.28 21.6003 21.77 21.4203L20.76 21.0703V23.9203H20.75Z" fill="#4AAF57"/>
<path d="M19.9701 9.90041C14.4501 9.92041 9.98007 14.4104 10.0001 19.9304C10.0201 25.4504 14.5101 29.9204 20.0301 29.9004C25.5501 29.8804 30.0201 25.3904 30.0001 19.8704C29.9801 14.3504 25.4901 9.89041 19.9701 9.90041ZM22.2601 20.0004C23.0401 20.2704 24.0901 20.8504 24.0901 22.6404C24.0901 24.1804 22.8801 25.4204 21.4001 25.4204H20.7501V26.0004C20.7501 26.4104 20.4101 26.7504 20.0001 26.7504C19.5901 26.7504 19.2501 26.4104 19.2501 26.0004V25.4204H18.8901C17.2501 25.4204 15.9201 24.0404 15.9201 22.3404C15.9201 21.9304 16.2601 21.5904 16.6701 21.5904C17.0801 21.5904 17.4201 21.9304 17.4201 22.3404C17.4201 23.2104 18.0801 23.9204 18.8901 23.9204H19.2501V20.5404L17.7401 20.0004C16.9601 19.7304 15.9101 19.1504 15.9101 17.3604C15.9101 15.8204 17.1201 14.5804 18.6001 14.5804H19.2501V14.0004C19.2501 13.5904 19.5901 13.2504 20.0001 13.2504C20.4101 13.2504 20.7501 13.5904 20.7501 14.0004V14.5804H21.1101C22.7501 14.5804 24.0801 15.9604 24.0801 17.6604C24.0801 18.0704 23.7401 18.4104 23.3301 18.4104C22.9201 18.4104 22.5801 18.0704 22.5801 17.6604C22.5801 16.7904 21.9201 16.0804 21.1101 16.0804H20.7501V19.4604L22.2601 20.0004Z" fill="#4AAF57"/>
<path d="M17.4219 17.3701C17.4219 18.2401 17.7319 18.4101 18.2419 18.5901L19.2519 18.9401V16.0801H18.6019C17.9519 16.0801 17.4219 16.6601 17.4219 17.3701Z" fill="#4AAF57"/>
</svg>
