<svg width="24" height="24" viewBox="0 0 24 24" fill="none" xmlns="http://www.w3.org/2000/svg">
<path d="M19.7926 14.9303C17.7326 16.9803 14.7826 17.6103 12.1926 16.8003L7.48259 21.5003C7.14259 21.8503 6.47259 22.0603 5.99259 21.9903L3.81259 21.6903C3.09259 21.5903 2.42259 20.9103 2.31259 20.1903L2.01259 18.0103C1.94259 17.5303 2.17259 16.8603 2.50259 16.5203L7.20259 11.8203C6.40259 9.22031 7.02259 6.27031 9.08259 4.22031C12.0326 1.27031 16.8226 1.27031 19.7826 4.22031C22.7426 7.17031 22.7426 11.9803 19.7926 14.9303Z" stroke="#4AAF57" stroke-width="1.5" stroke-miterlimit="10" stroke-linecap="round" stroke-linejoin="round"/>
<path d="M6.89062 17.4902L9.19062 19.7902" stroke="#4AAF57" stroke-width="1.5" stroke-miterlimit="10" stroke-linecap="round" stroke-linejoin="round"/>
<path d="M14.5 11C15.3284 11 16 10.3284 16 9.5C16 8.67157 15.3284 8 14.5 8C13.6716 8 13 8.67157 13 9.5C13 10.3284 13.6716 11 14.5 11Z" stroke="#4AAF57" stroke-width="1.5" stroke-linecap="round" stroke-linejoin="round"/>
</svg>
