<svg width="150" height="124" viewBox="0 0 150 124" fill="none" xmlns="http://www.w3.org/2000/svg">
<path d="M85.335 83.4934L64.875 63.0334" stroke="#D9D9D9" stroke-width="4" stroke-miterlimit="10" stroke-linecap="round" stroke-linejoin="round"/>
<path d="M85.1241 63.24L64.6641 83.7" stroke="#D9D9D9" stroke-width="4" stroke-miterlimit="10" stroke-linecap="round" stroke-linejoin="round"/>
<path d="M64.6693 31.0002H85.3359C95.6693 31.0002 95.6693 25.8335 95.6693 20.6668C95.6693 10.3335 90.5026 10.3335 85.3359 10.3335H64.6693C59.5026 10.3335 54.3359 10.3335 54.3359 20.6668C54.3359 31.0002 59.5026 31.0002 64.6693 31.0002Z" stroke="#D9D9D9" stroke-width="4" stroke-miterlimit="10" stroke-linecap="round" stroke-linejoin="round"/>
<path d="M95.6667 20.77C112.872 21.7 121.5 28.055 121.5 51.6667V82.6667C121.5 103.333 116.333 113.667 90.5 113.667H59.5C33.6667 113.667 28.5 103.333 28.5 82.6667V51.6667C28.5 28.1067 37.1283 21.7 54.3333 20.77" stroke="#D9D9D9" stroke-width="4" stroke-miterlimit="10" stroke-linecap="round" stroke-linejoin="round"/>
<circle cx="4" cy="44" r="3.5" stroke="#E5E6E8"/>
<circle cx="16" cy="9" r="6.25" stroke="#E5E6E8" stroke-width="1.5"/>
<circle cx="143" cy="62" r="6.25" stroke="#E5E6E8" stroke-width="1.5"/>
<circle cx="139" cy="31" r="3.5" stroke="#E5E6E8"/>
</svg>
