<svg width="28" height="28" viewBox="0 0 28 28" fill="none" xmlns="http://www.w3.org/2000/svg">
<path d="M24.2993 9.34494L16.6577 3.23161C15.1643 2.04161 12.831 2.02994 11.3493 3.21994L3.70768 9.34494C2.61101 10.2199 1.94601 11.9699 2.17934 13.3466L3.64935 22.1433C3.98768 24.1149 5.81934 25.6666 7.81434 25.6666H20.181C22.1527 25.6666 24.0193 24.0799 24.3577 22.1316L25.8277 13.3349C26.0377 11.9699 25.3727 10.2199 24.2993 9.34494ZM14.8727 20.9999C14.8727 21.4783 14.476 21.8749 13.9977 21.8749C13.5193 21.8749 13.1227 21.4783 13.1227 20.9999V17.4999C13.1227 17.0216 13.5193 16.6249 13.9977 16.6249C14.476 16.6249 14.8727 17.0216 14.8727 17.4999V20.9999Z" fill="#2B86C4"/>
</svg>
