<svg width="28" height="28" viewBox="0 0 28 28" fill="none" xmlns="http://www.w3.org/2000/svg">
<path d="M25.6693 19.5299V5.44827C25.6693 4.04827 24.5259 3.00994 23.1376 3.1266H23.0676C20.6176 3.3366 16.8959 4.58494 14.8193 5.8916L14.6209 6.01994C14.2826 6.22994 13.7226 6.22994 13.3843 6.01994L13.0926 5.84494C11.0159 4.54994 7.30594 3.31327 4.85594 3.11494C3.4676 2.99827 2.33594 4.04827 2.33594 5.4366V19.5299C2.33594 20.6499 3.24594 21.6999 4.36594 21.8399L4.70427 21.8866C7.23594 22.2249 11.1443 23.5083 13.3843 24.7333L13.4309 24.7566C13.7459 24.9316 14.2476 24.9316 14.5509 24.7566C16.7909 23.5199 20.7109 22.2249 23.2543 21.8866L23.6393 21.8399C24.7593 21.6999 25.6693 20.6499 25.6693 19.5299Z" stroke="#8B9098" stroke-width="1.75" stroke-linecap="round" stroke-linejoin="round"/>
<path d="M14 6.40503V23.905" stroke="#8B9098" stroke-width="1.75" stroke-linecap="round" stroke-linejoin="round"/>
<path d="M9.03906 9.90503H6.41406" stroke="#8B9098" stroke-width="1.75" stroke-linecap="round" stroke-linejoin="round"/>
<path d="M9.91406 13.405H6.41406" stroke="#8B9098" stroke-width="1.75" stroke-linecap="round" stroke-linejoin="round"/>
</svg>
