<svg width="28" height="28" viewBox="0 0 28 28" fill="none" xmlns="http://www.w3.org/2000/svg">
<path d="M25.6667 5.65838V19.53C25.6667 20.6617 24.745 21.7 23.6133 21.84L23.2517 21.8867C21.3383 22.1434 18.6433 22.9367 16.4733 23.8467C15.715 24.1617 14.875 23.59 14.875 22.7617V6.53338C14.875 6.10171 15.12 5.70504 15.505 5.49504C17.64 4.34004 20.8717 3.31338 23.065 3.12671H23.135C24.535 3.12671 25.6667 4.25838 25.6667 5.65838Z" fill="#2B86C4"/>
<path d="M12.5015 5.49504C10.3665 4.34004 7.13479 3.31338 4.94146 3.12671H4.85979C3.45979 3.12671 2.32812 4.25838 2.32812 5.65838V19.53C2.32812 20.6617 3.24979 21.7 4.38146 21.84L4.74312 21.8867C6.65646 22.1434 9.35146 22.9367 11.5215 23.8467C12.2798 24.1617 13.1198 23.59 13.1198 22.7617V6.53338C13.1198 6.09004 12.8865 5.70504 12.5015 5.49504ZM5.83979 9.03004H8.46479C8.94313 9.03004 9.33979 9.42671 9.33979 9.90504C9.33979 10.395 8.94313 10.78 8.46479 10.78H5.83979C5.36146 10.78 4.96479 10.395 4.96479 9.90504C4.96479 9.42671 5.36146 9.03004 5.83979 9.03004ZM9.33979 14.28H5.83979C5.36146 14.28 4.96479 13.895 4.96479 13.405C4.96479 12.9267 5.36146 12.53 5.83979 12.53H9.33979C9.81813 12.53 10.2148 12.9267 10.2148 13.405C10.2148 13.895 9.81813 14.28 9.33979 14.28Z" fill="#2B86C4"/>
</svg>
