<svg width="44" height="45" viewBox="0 0 44 45" fill="none" xmlns="http://www.w3.org/2000/svg">
<rect y="0.5" width="44" height="44" rx="22" fill="#4AAF57" fill-opacity="0.06"/>
<path d="M18.8647 21.255C18.7547 21.244 18.6227 21.244 18.5017 21.255C15.8837 21.167 13.8047 19.022 13.8047 16.382C13.8047 13.687 15.9827 11.498 18.6887 11.498C21.3837 11.498 23.5727 13.687 23.5727 16.382C23.5617 19.022 21.4827 21.167 18.8647 21.255Z" stroke="#4AAF57" stroke-width="1.65" stroke-linecap="round" stroke-linejoin="round"/>
<path d="M26.8383 13.6982C28.9723 13.6982 30.6883 15.4252 30.6883 17.5482C30.6883 19.6272 29.0383 21.3212 26.9813 21.3982C26.8933 21.3872 26.7943 21.3872 26.6953 21.3982" stroke="#4AAF57" stroke-width="1.65" stroke-linecap="round" stroke-linejoin="round"/>
<path d="M13.3637 25.3144C10.7017 27.0964 10.7017 30.0004 13.3637 31.7714C16.3887 33.7954 21.3497 33.7954 24.3747 31.7714C27.0367 29.9894 27.0367 27.0854 24.3747 25.3144C21.3607 23.3014 16.3997 23.3014 13.3637 25.3144Z" stroke="#4AAF57" stroke-width="1.65" stroke-linecap="round" stroke-linejoin="round"/>
<path d="M28.9609 31.2982C29.7529 31.1332 30.5009 30.8142 31.1169 30.3412C32.8329 29.0542 32.8329 26.9312 31.1169 25.6442C30.5119 25.1822 29.7749 24.8742 28.9939 24.6982" stroke="#4AAF57" stroke-width="1.65" stroke-linecap="round" stroke-linejoin="round"/>
</svg>
