<svg width="44" height="45" viewBox="0 0 44 45" fill="none" xmlns="http://www.w3.org/2000/svg">
<rect y="0.5" width="44" height="44" rx="22" fill="#2B86C4" fill-opacity="0.06"/>
<path d="M32.9922 27.7148V14.4378C32.9922 13.1178 31.9142 12.1388 30.6052 12.2488H30.5392C28.2292 12.4468 24.7202 13.6238 22.7622 14.8558L22.5752 14.9768C22.2562 15.1748 21.7282 15.1748 21.4092 14.9768L21.1342 14.8118C19.1762 13.5908 15.6782 12.4248 13.3682 12.2378C12.0592 12.1278 10.9922 13.1178 10.9922 14.4268V27.7148C10.9922 28.7708 11.8502 29.7608 12.9062 29.8928L13.2252 29.9368C15.6122 30.2558 19.2972 31.4658 21.4092 32.6208L21.4532 32.6428C21.7502 32.8078 22.2232 32.8078 22.5092 32.6428C24.6212 31.4768 28.3172 30.2558 30.7152 29.9368L31.0782 29.8928C32.1342 29.7608 32.9922 28.7708 32.9922 27.7148Z" stroke="#2B86C4" stroke-width="1.65" stroke-linecap="round" stroke-linejoin="round"/>
<path d="M21.9922 15.3398V31.8398" stroke="#2B86C4" stroke-width="1.65" stroke-linecap="round" stroke-linejoin="round"/>
<path d="M17.3187 18.6406H14.8438" stroke="#2B86C4" stroke-width="1.65" stroke-linecap="round" stroke-linejoin="round"/>
<path d="M18.1437 21.9404H14.8438" stroke="#2B86C4" stroke-width="1.65" stroke-linecap="round" stroke-linejoin="round"/>
</svg>
