<svg width="44" height="45" viewBox="0 0 44 45" fill="none" xmlns="http://www.w3.org/2000/svg">
<circle cx="22" cy="22.5" r="22" fill="#FB7F54" fill-opacity="0.06"/>
<path d="M13.9005 25.7535C13.4356 25.7535 13.0588 25.3642 13.0588 24.884C13.0588 24.4037 13.4356 24.0144 13.9005 24.0144C14.3653 24.0144 14.7422 24.4037 14.7422 24.884C14.7422 25.3642 14.3653 25.7535 13.9005 25.7535Z" fill="#FB7F54"/>
<path d="M15.7442 28.5541C15.2794 28.5541 14.9026 28.1648 14.9026 27.6845C14.9026 27.2043 15.2794 26.8149 15.7442 26.8149C16.2091 26.8149 16.5859 27.2043 16.5859 27.6845C16.5859 28.1648 16.2091 28.5541 15.7442 28.5541Z" fill="#FB7F54"/>
<path d="M13.2677 22.4171C12.8028 22.4171 12.426 22.0278 12.426 21.5475C12.426 21.0673 12.8028 20.678 13.2677 20.678C13.7325 20.678 14.1094 21.0673 14.1094 21.5475C14.1094 22.0278 13.7325 22.4171 13.2677 22.4171Z" fill="#FB7F54"/>
<path d="M18.4708 30.4532C18.006 30.4532 17.6291 30.0639 17.6291 29.5837C17.6291 29.1034 18.006 28.7141 18.4708 28.7141C18.9357 28.7141 19.3125 29.1034 19.3125 29.5837C19.3125 30.0639 18.9357 30.4532 18.4708 30.4532Z" fill="#FB7F54"/>
<path d="M21.686 29.3696C22.8983 29.3711 24.0932 29.072 25.1704 28.4974C26.2476 27.9229 27.1755 27.0896 27.8763 26.0677C28.5771 25.0457 29.0303 23.8649 29.1978 22.6245C29.3652 21.3841 29.2421 20.1203 28.8387 18.9392C28.4353 17.7582 27.7634 16.6944 26.8795 15.8373C25.9956 14.9802 24.9255 14.3547 23.7591 14.0135C22.5926 13.6723 21.364 13.6252 20.1763 13.8763C18.9887 14.1274 17.8767 14.6693 16.9338 15.4565H18.3192C18.5425 15.4565 18.7566 15.5481 18.9144 15.7112C19.0723 15.8743 19.1609 16.0955 19.1609 16.3261C19.1609 16.5567 19.0723 16.7779 18.9144 16.941C18.7566 17.104 18.5425 17.1957 18.3192 17.1957H14.9525C14.7292 17.1957 14.5151 17.104 14.3573 16.941C14.1995 16.7779 14.1108 16.5567 14.1108 16.3261V12.8478C14.1108 12.6172 14.1995 12.396 14.3573 12.233C14.5151 12.0699 14.7292 11.9783 14.9525 11.9783C15.1757 11.9783 15.3898 12.0699 15.5476 12.233C15.7055 12.396 15.7942 12.6172 15.7942 12.8478V14.1791C16.9387 13.2015 18.2943 12.5229 19.7462 12.2004C21.1981 11.878 22.7039 11.9214 24.1362 12.3268C25.5685 12.7322 26.8853 13.4877 27.9755 14.5296C29.0656 15.5716 29.897 16.8692 30.3995 18.313C30.902 19.7568 31.0607 21.3043 30.8624 22.8248C30.664 24.3454 30.1144 25.7943 29.2599 27.0491C28.4053 28.304 27.2711 29.3279 25.9528 30.0345C24.6346 30.7411 23.1711 31.1095 21.686 31.1087C21.4628 31.1087 21.2487 31.0171 21.0908 30.854C20.933 30.6909 20.8443 30.4698 20.8443 30.2391C20.8443 30.0085 20.933 29.7873 21.0908 29.6243C21.2487 29.4612 21.4628 29.3696 21.686 29.3696Z" fill="#FB7F54"/>
<path d="M18.5616 24.7665C18.4038 24.6034 18.3152 24.3823 18.3152 24.1517C18.3152 23.9211 18.4038 23.7 18.5616 23.5369L20.8401 21.183V16.3256C20.8401 16.095 20.9287 15.8738 21.0866 15.7107C21.2444 15.5477 21.4585 15.4561 21.6817 15.4561C21.905 15.4561 22.1191 15.5477 22.2769 15.7107C22.4348 15.8738 22.5234 16.095 22.5234 16.3256V21.543C22.5234 21.7736 22.4347 21.9948 22.2768 22.1578L19.7517 24.7665C19.5939 24.9295 19.3799 25.0211 19.1567 25.0211C18.9335 25.0211 18.7194 24.9295 18.5616 24.7665Z" fill="#FB7F54"/>
</svg>
