<svg width="28" height="28" viewBox="0 0 28 28" fill="none" xmlns="http://www.w3.org/2000/svg">
<path d="M14 7.51343V11.3984" stroke="#293241" stroke-width="1.75" stroke-miterlimit="10" stroke-linecap="round"/>
<path d="M14.0364 2.33301C9.74306 2.33301 6.2664 5.80967 6.2664 10.103V12.553C6.2664 13.3463 5.93973 14.5363 5.5314 15.213L4.04973 17.6863C3.13973 19.2147 3.76973 20.918 5.44973 21.478C11.0264 23.333 17.0581 23.333 22.6347 21.478C24.2097 20.953 24.8864 19.1097 24.0347 17.6863L22.5531 15.213C22.1447 14.5363 21.8181 13.3347 21.8181 12.553V10.103C21.8064 5.83301 18.3064 2.33301 14.0364 2.33301Z" stroke="#293241" stroke-width="1.75" stroke-miterlimit="10" stroke-linecap="round"/>
<path d="M17.8794 21.9568C17.8794 24.0918 16.1294 25.8418 13.9944 25.8418C12.9327 25.8418 11.9527 25.3985 11.2527 24.6985C10.5527 23.9985 10.1094 23.0185 10.1094 21.9568" stroke="#293241" stroke-width="1.75" stroke-miterlimit="10"/>
</svg>
