<svg width="24" height="24" viewBox="0 0 24 24" fill="none" xmlns="http://www.w3.org/2000/svg">
<path d="M12 6.43945V9.76945" stroke="#F1AC5F" stroke-width="1.5" stroke-miterlimit="10" stroke-linecap="round"/>
<path d="M12.0189 2C8.33892 2 5.35892 4.98 5.35892 8.66V10.76C5.35892 11.44 5.07892 12.46 4.72892 13.04L3.45892 15.16C2.67892 16.47 3.21892 17.93 4.65892 18.41C9.43892 20 14.6089 20 19.3889 18.41C20.7389 17.96 21.3189 16.38 20.5889 15.16L19.3189 13.04C18.9689 12.46 18.6889 11.43 18.6889 10.76V8.66C18.6789 5 15.6789 2 12.0189 2Z" stroke="#F1AC5F" stroke-width="1.5" stroke-miterlimit="10" stroke-linecap="round"/>
<path d="M15.3319 18.8203C15.3319 20.6503 13.8319 22.1503 12.0019 22.1503C11.0919 22.1503 10.2519 21.7703 9.65187 21.1703C9.05187 20.5703 8.67188 19.7303 8.67188 18.8203" stroke="#F1AC5F" stroke-width="1.5" stroke-miterlimit="10"/>
</svg>
