<svg width="18" height="18" viewBox="0 0 18 18" fill="none" xmlns="http://www.w3.org/2000/svg">
<path d="M9 11.25C10.2426 11.25 11.25 10.2426 11.25 9C11.25 7.75736 10.2426 6.75 9 6.75C7.75736 6.75 6.75 7.75736 6.75 9C6.75 10.2426 7.75736 11.25 9 11.25Z" stroke="#2B86C4" stroke-width="1.125" stroke-miterlimit="10" stroke-linecap="round" stroke-linejoin="round"/>
<path d="M1.50781 9.66203V8.34203C1.50781 7.56203 2.14531 6.91703 2.93281 6.91703C4.29031 6.91703 4.84531 5.95703 4.16281 4.77953C3.77281 4.10453 4.00531 3.22703 4.68781 2.83703L5.98531 2.09453C6.57781 1.74203 7.34281 1.95203 7.69531 2.54453L7.77781 2.68703C8.45281 3.86453 9.56281 3.86453 10.2453 2.68703L10.3278 2.54453C10.6803 1.95203 11.4453 1.74203 12.0378 2.09453L13.3353 2.83703C14.0178 3.22703 14.2503 4.10453 13.8603 4.77953C13.1778 5.95703 13.7328 6.91703 15.0903 6.91703C15.8703 6.91703 16.5153 7.55453 16.5153 8.34203V9.66203C16.5153 10.442 15.8778 11.087 15.0903 11.087C13.7328 11.087 13.1778 12.047 13.8603 13.2245C14.2503 13.907 14.0178 14.777 13.3353 15.167L12.0378 15.9095C11.4453 16.262 10.6803 16.052 10.3278 15.4595L10.2453 15.317C9.57031 14.1395 8.46031 14.1395 7.77781 15.317L7.69531 15.4595C7.34281 16.052 6.57781 16.262 5.98531 15.9095L4.68781 15.167C4.00531 14.777 3.77281 13.8995 4.16281 13.2245C4.84531 12.047 4.29031 11.087 2.93281 11.087C2.14531 11.087 1.50781 10.442 1.50781 9.66203Z" stroke="#2B86C4" stroke-width="1.125" stroke-miterlimit="10" stroke-linecap="round" stroke-linejoin="round"/>
</svg>
