<svg width="18" height="18" viewBox="0 0 18 18" fill="none" xmlns="http://www.w3.org/2000/svg">
<path d="M6 1.5V3.75" stroke="#8B9098" stroke-width="1.5" stroke-miterlimit="10" stroke-linecap="round" stroke-linejoin="round"/>
<path d="M12 1.5V3.75" stroke="#8B9098" stroke-width="1.5" stroke-miterlimit="10" stroke-linecap="round" stroke-linejoin="round"/>
<path d="M2.625 6.81738H15.375" stroke="#8B9098" stroke-width="1.5" stroke-miterlimit="10" stroke-linecap="round" stroke-linejoin="round"/>
<path d="M14.4043 11.8272L11.7494 14.4822C11.6444 14.5872 11.5469 14.7822 11.5244 14.9247L11.3818 15.9372C11.3293 16.3047 11.5844 16.5597 11.9519 16.5072L12.9644 16.3647C13.1069 16.3422 13.3094 16.2447 13.4069 16.1397L16.0619 13.4847C16.5194 13.0272 16.7369 12.4947 16.0619 11.8197C15.3944 11.1522 14.8618 11.3697 14.4043 11.8272Z" stroke="#8B9098" stroke-width="1.5" stroke-miterlimit="10" stroke-linecap="round" stroke-linejoin="round"/>
<path d="M14.0234 12.21C14.2484 13.02 14.8784 13.65 15.6884 13.875" stroke="#8B9098" stroke-width="1.5" stroke-miterlimit="10" stroke-linecap="round" stroke-linejoin="round"/>
<path d="M9 16.5H6C3.375 16.5 2.25 15 2.25 12.75V6.375C2.25 4.125 3.375 2.625 6 2.625H12C14.625 2.625 15.75 4.125 15.75 6.375V9" stroke="#8B9098" stroke-width="1.5" stroke-miterlimit="10" stroke-linecap="round" stroke-linejoin="round"/>
<path d="M8.99588 10.2754H9.00262" stroke="#8B9098" stroke-width="2" stroke-linecap="round" stroke-linejoin="round"/>
<path d="M6.22244 10.2754H6.22918" stroke="#8B9098" stroke-width="2" stroke-linecap="round" stroke-linejoin="round"/>
<path d="M6.22244 12.5254H6.22918" stroke="#8B9098" stroke-width="2" stroke-linecap="round" stroke-linejoin="round"/>
</svg>
