<svg width="18" height="18" viewBox="0 0 18 18" fill="none" xmlns="http://www.w3.org/2000/svg">
<path d="M1.48438 6.75195V4.87695C1.48438 3.00945 2.99188 1.50195 4.85938 1.50195H6.73438" stroke="#2B86C4" stroke-width="1.125" stroke-linecap="round" stroke-linejoin="round"/>
<path d="M11.25 1.50195H13.125C14.9925 1.50195 16.5 3.00945 16.5 4.87695V6.75195" stroke="#2B86C4" stroke-width="1.125" stroke-linecap="round" stroke-linejoin="round"/>
<path d="M16.5156 11.998V13.123C16.5156 14.9905 15.0081 16.498 13.1406 16.498H12.0156" stroke="#2B86C4" stroke-width="1.125" stroke-linecap="round" stroke-linejoin="round"/>
<path d="M6.73438 16.5H4.85938C2.99188 16.5 1.48438 14.9925 1.48438 13.125V11.25" stroke="#2B86C4" stroke-width="1.125" stroke-linecap="round" stroke-linejoin="round"/>
<path d="M7.89062 5.24805V6.74805C7.89062 7.49805 7.51562 7.87305 6.76562 7.87305H5.26562C4.51562 7.87305 4.14062 7.49805 4.14062 6.74805V5.24805C4.14062 4.49805 4.51562 4.12305 5.26562 4.12305H6.76562C7.51562 4.12305 7.89062 4.49805 7.89062 5.24805Z" stroke="#2B86C4" stroke-width="1.125" stroke-linecap="round" stroke-linejoin="round"/>
<path d="M13.875 5.24805V6.74805C13.875 7.49805 13.5 7.87305 12.75 7.87305H11.25C10.5 7.87305 10.125 7.49805 10.125 6.74805V5.24805C10.125 4.49805 10.5 4.12305 11.25 4.12305H12.75C13.5 4.12305 13.875 4.49805 13.875 5.24805Z" stroke="#2B86C4" stroke-width="1.125" stroke-linecap="round" stroke-linejoin="round"/>
<path d="M7.89062 11.25V12.75C7.89062 13.5 7.51562 13.875 6.76562 13.875H5.26562C4.51562 13.875 4.14062 13.5 4.14062 12.75V11.25C4.14062 10.5 4.51562 10.125 5.26562 10.125H6.76562C7.51562 10.125 7.89062 10.5 7.89062 11.25Z" stroke="#2B86C4" stroke-width="1.125" stroke-linecap="round" stroke-linejoin="round"/>
<path d="M13.875 11.25V12.75C13.875 13.5 13.5 13.875 12.75 13.875H11.25C10.5 13.875 10.125 13.5 10.125 12.75V11.25C10.125 10.5 10.5 10.125 11.25 10.125H12.75C13.5 10.125 13.875 10.5 13.875 11.25Z" stroke="#2B86C4" stroke-width="1.125" stroke-linecap="round" stroke-linejoin="round"/>
</svg>
