<svg width="18" height="18" viewBox="0 0 18 18" fill="none" xmlns="http://www.w3.org/2000/svg">
<path d="M6.98438 11.0244L8.10938 12.1494L11.1094 9.14941" stroke="#4AAF57" stroke-opacity="0.960784" stroke-width="1.125" stroke-linecap="round" stroke-linejoin="round"/>
<path d="M7.50781 4.50195H10.5078C12.0078 4.50195 12.0078 3.75195 12.0078 3.00195C12.0078 1.50195 11.2578 1.50195 10.5078 1.50195H7.50781C6.75781 1.50195 6.00781 1.50195 6.00781 3.00195C6.00781 4.50195 6.75781 4.50195 7.50781 4.50195Z" stroke="#4AAF57" stroke-opacity="0.960784" stroke-width="1.125" stroke-miterlimit="10" stroke-linecap="round" stroke-linejoin="round"/>
<path d="M12 3.01465C14.4975 3.14965 15.75 4.07215 15.75 7.49965V11.9996C15.75 14.9996 15 16.4996 11.25 16.4996H6.75C3 16.4996 2.25 14.9996 2.25 11.9996V7.49965C2.25 4.07965 3.5025 3.14965 6 3.01465" stroke="#4AAF57" stroke-opacity="0.960784" stroke-width="1.125" stroke-miterlimit="10" stroke-linecap="round" stroke-linejoin="round"/>
</svg>
