<svg width="18" height="18" viewBox="0 0 18 18" fill="none" xmlns="http://www.w3.org/2000/svg">
<path d="M15.75 16.5H2.25C1.9425 16.5 1.6875 16.245 1.6875 15.9375C1.6875 15.63 1.9425 15.375 2.25 15.375H15.75C16.0575 15.375 16.3125 15.63 16.3125 15.9375C16.3125 16.245 16.0575 16.5 15.75 16.5Z" fill="white"/>
<path d="M14.2649 2.61061C12.8099 1.15561 11.3849 1.11811 9.89243 2.61061L8.98493 3.51811C8.90993 3.59311 8.87993 3.71311 8.90993 3.81811C9.47993 5.80561 11.0699 7.39561 13.0574 7.96561C13.0874 7.97311 13.1174 7.98061 13.1474 7.98061C13.2299 7.98061 13.3049 7.95061 13.3649 7.89061L14.2649 6.98311C15.0074 6.24811 15.3674 5.53561 15.3674 4.81561C15.3749 4.07311 15.0149 3.35311 14.2649 2.61061Z" fill="white"/>
<path d="M11.7043 8.64748C11.4868 8.54248 11.2768 8.43748 11.0743 8.31748C10.9093 8.21998 10.7518 8.11498 10.5943 8.00248C10.4668 7.91998 10.3168 7.79998 10.1743 7.67998C10.1593 7.67248 10.1068 7.62748 10.0468 7.56748C9.79932 7.35748 9.52182 7.08748 9.27432 6.78748C9.25182 6.77248 9.21432 6.71998 9.16182 6.65248C9.08682 6.56248 8.95932 6.41248 8.84682 6.23998C8.75682 6.12748 8.65182 5.96248 8.55432 5.79748C8.43432 5.59498 8.32932 5.39248 8.22432 5.18248C8.20843 5.14843 8.19306 5.11455 8.17815 5.08088C8.06747 4.83089 7.74149 4.7578 7.54817 4.95112L3.25182 9.24748C3.15432 9.34498 3.06432 9.53248 3.04182 9.65998L2.63682 12.5325C2.56182 13.0425 2.70432 13.5225 3.01932 13.845C3.28932 14.1075 3.66432 14.25 4.06932 14.25C4.15932 14.25 4.24932 14.2425 4.33932 14.2275L7.21932 13.8225C7.35432 13.8 7.54182 13.71 7.63182 13.6125L11.9228 9.32149C12.1175 9.12683 12.044 8.79273 11.7908 8.68468C11.7623 8.67252 11.7335 8.66013 11.7043 8.64748Z" fill="white"/>
</svg>
