<svg width="109" height="81" viewBox="0 0 109 81" fill="none" xmlns="http://www.w3.org/2000/svg">
<path d="M6.75583 38.503C6.75583 40.1615 5.41137 41.506 3.75291 41.506C2.09446 41.506 0.75 40.1615 0.75 38.503C0.75 36.8445 2.09446 35.5 3.75291 35.5C5.41137 35.5 6.75583 36.8445 6.75583 38.503Z" stroke="#E5E6E8"/>
<path d="M19.229 6.13022C19.229 9.0844 16.8342 11.4792 13.8801 11.4792C10.926 11.4792 8.53124 9.0844 8.53124 6.13022C8.53124 3.17605 10.926 0.781242 13.8801 0.781242C16.8342 0.781242 19.229 3.17605 19.229 6.13022Z" stroke="#E5E6E8" stroke-width="1.56248"/>
<path d="M102.252 41.0019C102.252 39.3434 103.596 37.9989 105.255 37.9989C106.913 37.9989 108.258 39.3434 108.258 41.0019C108.258 42.6604 106.913 44.0049 105.255 44.0049C103.596 44.0049 102.252 42.6604 102.252 41.0019Z" stroke="#E5E6E8"/>
<path d="M89.7789 73.3747C89.7789 70.4205 92.1736 68.0257 95.1277 68.0257C98.0818 68.0257 100.477 70.4205 100.477 73.3747C100.477 76.3288 98.0818 78.7236 95.1277 78.7236C92.1736 78.7236 89.7789 76.3288 89.7789 73.3747Z" stroke="#E5E6E8" stroke-width="1.56248"/>
<path d="M86.7339 13.6563C85.8589 12.7812 84.4297 12.7812 83.5547 13.6563L24.7422 72.4979C23.8672 73.3729 23.8672 74.8021 24.7422 75.6771C25.1797 76.0854 25.7339 76.3188 26.3172 76.3188C26.9005 76.3188 27.4547 76.0854 27.8922 75.6479L86.7339 16.8062C87.638 15.9312 87.638 14.5313 86.7339 13.6563Z" fill="white"/>
<path fill-rule="evenodd" clip-rule="evenodd" d="M52.8614 50.3662V27.3333C52.8614 26.225 52.2781 25.2625 51.3156 24.7375C45.9782 21.85 37.8992 19.2833 32.416 18.8167H32.2119C28.7119 18.8167 25.8828 21.6458 25.8828 25.1458V59.825C25.8828 62.6542 28.1869 65.25 31.016 65.6L31.9202 65.7167C33.3422 65.9074 34.937 66.2168 36.6186 66.6171L52.8614 50.3662ZM41.5625 67.9776L52.8614 56.6787V67.9042C52.8614 69.975 50.7615 71.4042 48.8657 70.6167C46.5826 69.6592 44.0671 68.7534 41.5625 67.9776ZM41.2242 33.575H34.6618C33.466 33.575 32.4743 34.5667 32.4743 35.7625C32.4743 36.9875 33.466 37.95 34.6618 37.95H41.2242C42.42 37.95 43.4116 36.9875 43.4116 35.7625C43.4116 34.5667 42.42 33.575 41.2242 33.575ZM34.6618 46.7H43.4116C44.6074 46.7 45.5991 45.7375 45.5991 44.5125C45.5991 43.3167 44.6074 42.325 43.4116 42.325H34.6618C33.466 42.325 32.4743 43.3167 32.4743 44.5125C32.4743 45.7375 33.466 46.7 34.6618 46.7Z" fill="white"/>
<path fill-rule="evenodd" clip-rule="evenodd" d="M82.4755 20.737C81.3258 19.5518 79.7156 18.8162 77.9308 18.8162H77.7558C72.2726 19.2828 64.1936 21.8495 58.8562 24.737C57.8937 25.262 57.2812 26.2537 57.2812 27.3328V45.9437L82.4755 20.737ZM57.2812 52.2589L84.2599 25.2802V59.8245C84.2599 62.6537 81.9558 65.2495 79.1266 65.5995L78.2225 65.7162C73.4393 66.3578 66.7019 68.3412 61.277 70.6162C59.3812 71.4037 57.2812 69.9745 57.2812 67.9037V52.2589Z" fill="white"/>
</svg>
