<svg width="18" height="18" viewBox="0 0 18 18" fill="none" xmlns="http://www.w3.org/2000/svg">
<path d="M15.4687 6.33848C14.6812 2.87348 11.6587 1.31348 9.00373 1.31348C9.00373 1.31348 9.00373 1.31348 8.99623 1.31348C6.34873 1.31348 3.31873 2.86598 2.53123 6.33098C1.65373 10.201 4.02373 13.4785 6.16873 15.541C6.96373 16.306 7.98373 16.6885 9.00373 16.6885C10.0237 16.6885 11.0437 16.306 11.8312 15.541C13.9762 13.4785 16.3462 10.2085 15.4687 6.33848ZM9.00373 10.096C7.69873 10.096 6.64123 9.03848 6.64123 7.73348C6.64123 6.42848 7.69873 5.37098 9.00373 5.37098C10.3087 5.37098 11.3662 6.42848 11.3662 7.73348C11.3662 9.03848 10.3087 10.096 9.00373 10.096Z" fill="#E65768"/>
</svg>
