<svg width="40" height="40" viewBox="0 0 40 40" fill="none" xmlns="http://www.w3.org/2000/svg">
<rect width="40" height="40" rx="20" fill="#4AAF57" fill-opacity="0.12"/>
<path d="M24.7502 11.56V10C24.7502 9.59 24.4102 9.25 24.0002 9.25C23.5902 9.25 23.2502 9.59 23.2502 10V11.5H16.7502V10C16.7502 9.59 16.4102 9.25 16.0002 9.25C15.5902 9.25 15.2502 9.59 15.2502 10V11.56C12.5502 11.81 11.2402 13.42 11.0402 15.81C11.0202 16.1 11.2602 16.34 11.5402 16.34H28.4602C28.7502 16.34 28.9902 16.09 28.9602 15.81C28.7602 13.42 27.4502 11.81 24.7502 11.56Z" fill="#4AAF57" fill-opacity="0.960784"/>
<path d="M28 17.8398H12C11.45 17.8398 11 18.2898 11 18.8398V24.9998C11 27.9998 12.5 29.9998 16 29.9998H24C27.5 29.9998 29 27.9998 29 24.9998V18.8398C29 18.2898 28.55 17.8398 28 17.8398ZM17.21 26.2098C17.16 26.2498 17.11 26.2998 17.06 26.3298C17 26.3698 16.94 26.3998 16.88 26.4198C16.82 26.4498 16.76 26.4698 16.7 26.4798C16.63 26.4898 16.57 26.4998 16.5 26.4998C16.37 26.4998 16.24 26.4698 16.12 26.4198C15.99 26.3698 15.89 26.2998 15.79 26.2098C15.61 26.0198 15.5 25.7598 15.5 25.4998C15.5 25.2398 15.61 24.9798 15.79 24.7898C15.89 24.6998 15.99 24.6298 16.12 24.5798C16.3 24.4998 16.5 24.4798 16.7 24.5198C16.76 24.5298 16.82 24.5498 16.88 24.5798C16.94 24.5998 17 24.6298 17.06 24.6698C17.11 24.7098 17.16 24.7498 17.21 24.7898C17.39 24.9798 17.5 25.2398 17.5 25.4998C17.5 25.7598 17.39 26.0198 17.21 26.2098ZM17.21 22.7098C17.02 22.8898 16.76 22.9998 16.5 22.9998C16.24 22.9998 15.98 22.8898 15.79 22.7098C15.61 22.5198 15.5 22.2598 15.5 21.9998C15.5 21.7398 15.61 21.4798 15.79 21.2898C16.07 21.0098 16.51 20.9198 16.88 21.0798C17.01 21.1298 17.12 21.1998 17.21 21.2898C17.39 21.4798 17.5 21.7398 17.5 21.9998C17.5 22.2598 17.39 22.5198 17.21 22.7098ZM20.71 26.2098C20.52 26.3898 20.26 26.4998 20 26.4998C19.74 26.4998 19.48 26.3898 19.29 26.2098C19.11 26.0198 19 25.7598 19 25.4998C19 25.2398 19.11 24.9798 19.29 24.7898C19.66 24.4198 20.34 24.4198 20.71 24.7898C20.89 24.9798 21 25.2398 21 25.4998C21 25.7598 20.89 26.0198 20.71 26.2098ZM20.71 22.7098C20.66 22.7498 20.61 22.7898 20.56 22.8298C20.5 22.8698 20.44 22.8998 20.38 22.9198C20.32 22.9498 20.26 22.9698 20.2 22.9798C20.13 22.9898 20.07 22.9998 20 22.9998C19.74 22.9998 19.48 22.8898 19.29 22.7098C19.11 22.5198 19 22.2598 19 21.9998C19 21.7398 19.11 21.4798 19.29 21.2898C19.38 21.1998 19.49 21.1298 19.62 21.0798C19.99 20.9198 20.43 21.0098 20.71 21.2898C20.89 21.4798 21 21.7398 21 21.9998C21 22.2598 20.89 22.5198 20.71 22.7098ZM24.21 26.2098C24.02 26.3898 23.76 26.4998 23.5 26.4998C23.24 26.4998 22.98 26.3898 22.79 26.2098C22.61 26.0198 22.5 25.7598 22.5 25.4998C22.5 25.2398 22.61 24.9798 22.79 24.7898C23.16 24.4198 23.84 24.4198 24.21 24.7898C24.39 24.9798 24.5 25.2398 24.5 25.4998C24.5 25.7598 24.39 26.0198 24.21 26.2098ZM24.21 22.7098C24.16 22.7498 24.11 22.7898 24.06 22.8298C24 22.8698 23.94 22.8998 23.88 22.9198C23.82 22.9498 23.76 22.9698 23.7 22.9798C23.63 22.9898 23.56 22.9998 23.5 22.9998C23.24 22.9998 22.98 22.8898 22.79 22.7098C22.61 22.5198 22.5 22.2598 22.5 21.9998C22.5 21.7398 22.61 21.4798 22.79 21.2898C22.89 21.1998 22.99 21.1298 23.12 21.0798C23.3 20.9998 23.5 20.9798 23.7 21.0198C23.76 21.0298 23.82 21.0498 23.88 21.0798C23.94 21.0998 24 21.1298 24.06 21.1698C24.11 21.2098 24.16 21.2498 24.21 21.2898C24.39 21.4798 24.5 21.7398 24.5 21.9998C24.5 22.2598 24.39 22.5198 24.21 22.7098Z" fill="#4AAF57" fill-opacity="0.960784"/>
</svg>
